<svg xmlns="http://www.w3.org/2000/svg" width="30" height="30" viewBox="0 0 30 30">
    <defs>
        <style>
            .cls-1{fill:#fff;stroke:#707070}.cls-2{fill:none}.cls-3{clip-path:url(#clip-path)}.cls-4{clip-path:url(#clip-path-2)}.cls-5{fill:#1456F0}
        </style>
        <clipPath id="clip-path">
            <path d="M0 0h30v30H0z" class="cls-2"/>
        </clipPath>
        <clipPath id="clip-path-2">
            <path id="Rectangle_1" d="M0 0h30v30H0z" class="cls-1" data-name="Rectangle 1" transform="translate(50 45)"/>
        </clipPath>
    </defs>
    <g id="Products:_Desktop_30" class="cls-3" data-name="Products: Desktop 30">
        <g id="Products:_Desktop_30-2" class="cls-4" data-name="Products: Desktop 30" transform="translate(-50 -45)">
            <g id="Desktop_RGB_blue_30" transform="translate(50 49.138)">
                <g id="Feedback_RGB_blue_60">
                    <g id="Desktop_RGB_blue_30-2" data-name="Desktop_RGB_blue_30">
                        <path id="Path_9" d="M27.931 6.724h-8.276v12.931a2.069 2.069 0 0 0 2.069 2.069H30V8.793a2.069 2.069 0 0 0-2.069-2.069zm0 12.931h-2.069v-6.724h-2.069v6.724h-2.069V8.793h6.207z" class="cls-5" data-name="Path 9"/>
                        <path id="Path_10" d="M12.414 15.517H3.1a1.034 1.034 0 0 1-1.034-1.034V2.069h20.69A1.034 1.034 0 0 1 23.793 3.1v1.555h2.069V3.1a3.1 3.1 0 0 0-3.1-3.1H0v14.483a3.1 3.1 0 0 0 3.1 3.1h9.31v2.069H4.138v2.069h13.448v-2.066h-3.1v-2.069h3.1v-2.069z" class="cls-5" data-name="Path 10"/>
                    </g>
                </g>
            </g>
        </g>
    </g>
</svg>
