<svg width="18" height="23" viewBox="0 0 18 23" fill="none" xmlns="http://www.w3.org/2000/svg">
    <path d="M4.91973 16.4732C2.23846 15.5795 0.347819 13.1738 0.113107 10.3573L0 9C0 4.02944 4.02944 0 9 0C13.9706 0 18 4.02944 18 9L17.8869 10.3573C17.6522 13.1738 15.7615 15.5795 13.0803 16.4732C13.0297 16.4901 12.9901 16.5297 12.9732 16.5803L12.4189 18.2434C12.1687 18.9938 11.4665 19.5 10.6754 19.5H7.32456C6.53354 19.5 5.83128 18.9938 5.58114 18.2434L5.02676 16.5803C5.00991 16.5297 4.97026 16.4901 4.91973 16.4732ZM9.01272 5.19811L5.16843 9.41074C4.80363 9.77341 5.06729 10.348 5.61517 10.3843L7.82691 10.5308L7.82696 13.4128C7.82697 13.9518 8.58185 14.205 8.98728 13.8019L12.8316 9.58926C13.1964 9.22659 12.9327 8.65204 12.3848 8.61574L10.1731 8.46919L10.173 5.58722C10.173 5.04818 9.41815 4.79504 9.01272 5.19811Z" fill="#1456F0"/>
    <path d="M6 21.5C6 20.9477 6.44772 20.5 7 20.5H11C11.5523 20.5 12 20.9477 12 21.5C12 22.0523 11.5523 22.5 11 22.5H7C6.44772 22.5 6 22.0523 6 21.5Z" fill="#1456F0"/>
</svg>
